<svg xmlns="http://www.w3.org/2000/svg" viewBox="0 0 96.17 100"><defs><style>.cls-1{fill:#364959;}</style></defs><title>form_bg</title><g id="Layer_2" data-name="Layer 2"><g id="Layer_1-2" data-name="Layer 1"><path class="cls-1" d="M38.18,0h.58l.19.14,8.91,5.15a.39.39,0,0,0,.45,0L55.6,1.07,57.41,0H58l.19.14,8.91,5.15a.39.39,0,0,0,.45,0l7.29-4.21L76.64,0h.58l.19.14,8.91,5.15a.39.39,0,0,0,.45,0L94.65.73,95.88,0h.29V.29c0,.07-.11.14-.15.21L87,16l-.13.25.25-.13,8.73-5a2.24,2.24,0,0,1,.28-.12v.24l-.09,0L87.23,16.4l-.19.14h9.13v.24H87.1a.53.53,0,0,0,.19.16l8.87,5.12v.24c-.12-.06-.25-.11-.36-.17l-7.92-4.57L87,17a.62.62,0,0,0,.09.26l8.83,15.3c.09.15.18.3.28.44v.58a1.2,1.2,0,0,0-.11.14L87,49.4s0,.1-.09.2l.23-.13,3.28-1.9,5.72-3.29v.29l-.15.07-8.74,5-.24.16h9.14v.24H87.22l-.14,0,.11.07,4.64,2.68,4.34,2.52v.24l-.26-.12-8.73-5-.27-.14.14.26L94.39,63.3l1.77,3v.53l-.09.14L87,82.71s0,.1-.09.2l.27-.15,5.66-3.26,3.31-1.9v.29L96,78l-8.73,5-.17.11v0h8.76l.31,0v.24l-.14,0H87.25a.84.84,0,0,0-.16,0l.08.06L96,88.59l.15.06v.29l-.26-.13-8.73-5-.27-.14.14.26L94,96l2.12,3.65a1,1,0,0,0,0,.22c0,.15-.07.12-.15.12l-.22-.14-9-5.23a.37.37,0,0,0-.43,0l-7.81,4.52-1.44.85h-.29l-.2-.13-9.06-5.24a.37.37,0,0,0-.43,0l-7.81,4.52-1.44.85h-.29l-.2-.13L48.3,94.63a.37.37,0,0,0-.43,0l-7.81,4.52-1.44.85h-.29l-.2-.13-9.06-5.24a.37.37,0,0,0-.43,0l-7.81,4.52-1.44.85H19.1l-.18-.12-9.1-5.26a.33.33,0,0,0-.39,0L2.76,98.47.15,100c-.08,0-.18,0-.15-.12a1,1,0,0,0,0-.22l.05-.08L9.18,83.81a1.36,1.36,0,0,0,.07-.17L9,83.76,1.55,88.07,0,88.94v-.29l.24-.11,8.61-5,.27-.17H.25l-.24,0v-.24l.31,0H9.08A.5.5,0,0,0,8.89,83L1.35,78.63,0,77.88V77.6l.25.13,8.73,5,.27.14-.15-.28-7-12.1L0,66.88q0-.26,0-.53l0-.05L9.19,50.47a.84.84,0,0,0,0-.14l-.11.06L.56,55.33,0,55.63q0-.12,0-.24l.24-.15,8.65-5,.22-.14H0q0-.12,0-.24H9.08a.72.72,0,0,0-.24-.2l-6.9-4L0,44.57q0-.14,0-.29l.3.16,8.69,5,.27.14-.13-.24-9-15.57A1.86,1.86,0,0,0,0,33.61V33l.07-.09,9.1-15.76A1.16,1.16,0,0,0,9.24,17L9,17.15l-8.63,5c-.12.07-.24.12-.36.17s0-.16,0-.24l9.07-5.24,0,0H0v-.24H9.08a.61.61,0,0,0-.22-.19L4.23,13.68,0,11.25q0-.12,0-.24a2.24,2.24,0,0,1,.28.12l8.73,5,.25.13-.12-.23L.15.48A2.12,2.12,0,0,0,0,.29V0H.3L.45.11l9,5.17a.39.39,0,0,0,.45,0l7.29-4.21L19,0h.58l.19.14,8.91,5.15a.39.39,0,0,0,.45,0l7.29-4.21ZM86,83.14l0,0L85.87,83,77.1,77.95a.32.32,0,0,0-.37,0l-8.65,5-.23.13,0,0Zm-19.15,0-.2-.12-8.77-5.07a.32.32,0,0,0-.37,0l-8.64,5-.29.17Zm-19.24,0L47.38,83l-8.73-5a.32.32,0,0,0-.37,0l-8.15,4.71-.8.46Zm-19.24,0L28.15,83l-8.73-5A.32.32,0,0,0,19,78l-8.67,5-.26.16ZM67.8,49.83H86.06l-.18-.12-8.79-5.08a.3.3,0,0,0-.35,0l-8.65,5Zm-1,0-.13-.09-8.86-5.11a.38.38,0,0,0-.32,0l-8.72,5-.23.15Zm-37.5,0H47.6l-.18-.12-8.79-5.08a.3.3,0,0,0-.35,0l-8.65,5Zm-1,0-.12-.09-8.88-5.12a.33.33,0,0,0-.28,0l-8.8,5.08-.17.13ZM.5,33.43l.21.13,8.75,5.06a.32.32,0,0,0,.37,0l8.73-5,.19-.13Zm19.29,0v0l.12.08,8.73,5a.39.39,0,0,0,.45,0l8.71-5,.17-.13Zm19.17,0,.13.09,8.83,5.1a.32.32,0,0,0,.37,0l8.73-5,.17-.13Zm19.23,0,.19.12,8.73,5a.35.35,0,0,0,.41,0l8.73-5,.19-.13Zm19.23,0,.13.09,8.83,5.1a.32.32,0,0,0,.37,0l8.67-5,.26-.16ZM67.81,16.52H86.06l-.26-.17-8.66-5a.35.35,0,0,0-.41,0l-8.66,5Zm-1,0-.19-.13-8.79-5.08a.28.28,0,0,0-.32,0l-8.71,5-.24.16Zm-37.48,0H47.6l-.26-.17-8.66-5a.35.35,0,0,0-.41,0l-8.66,5Zm-1,0-.22-.14L19.4,11.33a.3.3,0,0,0-.35,0l-8.69,5-.25.16ZM57.21,66.75H39l.17.11,8.79,5.08a.3.3,0,0,0,.35,0l8.71-5ZM38,66.75H19.74l.19.13,8.77,5.07a.3.3,0,0,0,.35,0l8.71-5ZM.5,66.74l.13.09,8.86,5.11a.35.35,0,0,0,.29,0l8.82-5.08.13-.11Zm57.69,0,.13.09,8.85,5.12a.28.28,0,0,0,.32,0l8.73-5,.23-.15Zm37.5,0H77.43l.17.11,8.79,5.08a.3.3,0,0,0,.35,0l8.67-5Zm-76.94-.26-.23-.14-8.73-5a.3.3,0,0,0-.35,0l-8.73,5-.22.14Zm1,0H38l-.35-.21-8.56-4.95a.37.37,0,0,0-.43,0l-8.38,4.84Zm37.48,0L57,66.36l-8.77-5.07a.29.29,0,0,0-.34,0l-8.42,4.86-.52.31Zm19.23,0-.19-.12-8.77-5.07a.28.28,0,0,0-.32,0l-8.71,5-.24.15Zm19.24,0-.18-.12-8.77-5.07a.31.31,0,0,0-.37,0l-8.63,5-.3.18ZM86.06,16.8H67.83l.14.09L76.76,22a.32.32,0,0,0,.37,0l5.94-3.44Zm-37.47,0,.18.12L57.52,22a.32.32,0,0,0,.37,0l8.75-5.06.17-.11Zm-19.24,0,.2.13,8.71,5a.37.37,0,0,0,.43,0l8.73-5,.17-.11Zm-19.22,0,.15.1L19.07,22a.3.3,0,0,0,.35,0l8.75-5.06.16-.12Zm67.3,16.37H95.65l-.17-.11L86.71,28a.3.3,0,0,0-.35,0l-5.78,3.34Zm-19.23,0H76.42L76.21,33l-8.73-5a.3.3,0,0,0-.35,0l-5.51,3.18ZM39,33.16H57.19L57,33l-8.73-5a.3.3,0,0,0-.35,0l-5.51,3.18Zm-19.23,0H38L37.75,33,29,28a.3.3,0,0,0-.35,0l-5.51,3.18Zm-1,0L18.53,33,9.78,28a.28.28,0,0,0-.33,0L.72,33l-.2.14Zm49,17.17,0,0,9.09,15.75c0-.13,0-.17,0-.22q0-5.07,0-10.14a.3.3,0,0,0-.18-.29l-8.71-5ZM57.51,66.05h0s0-.08,0-.12q0-5.08,0-10.16a.3.3,0,0,0-.18-.29l-8.73-5-.16-.08,0,0ZM29.27,50.34l0,0,9.09,15.74c0-.13,0-.18,0-.24q0-5.06,0-10.12a.3.3,0,0,0-.18-.3l-8-4.61ZM57.84,66l0,0,9.05-15.68a.26.26,0,0,0-.17,0l-8.69,5a.42.42,0,0,0-.25.42q0,5,0,9.95ZM38.61,66h.05l9.05-15.68a.41.41,0,0,0-.21.07l-8.67,5a.39.39,0,0,0-.22.39q0,5,0,10ZM19.38,66h.05l9.05-15.68a.37.37,0,0,0-.2.06l-8.67,5a.41.41,0,0,0-.24.41q0,5,0,10Zm-.29.07c0-.11,0-.14,0-.18q0-5.09,0-10.19a.28.28,0,0,0-.18-.27l-8.73-5L10,50.32Zm58-.07h.05l9-15.68a.38.38,0,0,0-.2.06l-8.67,5a.41.41,0,0,0-.24.41q0,5,0,10ZM67.45,49.38h.06l9-15.66a.35.35,0,0,0-.2.05l-8.69,5a.37.37,0,0,0-.21.38q0,5,0,10ZM58.12,33.69l0,0,9,15.66a.34.34,0,0,0,.05-.19q0-5,0-10.07a.32.32,0,0,0-.19-.32l-8-4.62Zm-9.9,15.69h.06l9-15.66a.34.34,0,0,0-.2.05l-8.69,5a.37.37,0,0,0-.21.38q0,5,0,10Zm-.33,0,0,0s0-.08,0-.12q0-5.07,0-10.14a.32.32,0,0,0-.2-.31l-8.71-5-.22-.1ZM38.09,33.73l0,0-.11.05-8.8,5.08c-.15.09-.16.2-.16.33q0,5,0,10c0,.07,0,.15,0,.3ZM28.67,49.39l0,0s0-.08,0-.12q0-5.07,0-10.14a.3.3,0,0,0-.18-.3l-8.73-5-.22-.1ZM29.27,17l0,0,9.09,15.74c0-.12,0-.17,0-.21q0-5.07,0-10.14a.3.3,0,0,0-.19-.29l-5.07-2.93ZM57.51,32.74h0s0-.09,0-.14q0-5.07,0-10.14a.3.3,0,0,0-.19-.29l-8.69-5L48.43,17ZM10,17l0,0,9.08,15.72a1,1,0,0,0,0-.12q0-5.12,0-10.24c0-.15-.08-.2-.19-.27l-6.09-3.52Zm28.57,15.7h.05l9.05-15.68a.49.49,0,0,0-.23.08l-8.65,5a.39.39,0,0,0-.23.39q0,5,0,10Zm38.46,0,.05,0,9.05-15.68a.54.54,0,0,0-.24.08l-8.65,5a.37.37,0,0,0-.22.37q0,5,0,10Zm-19.23,0h.05l9.05-15.68a.5.5,0,0,0-.23.08l-8.65,5a.39.39,0,0,0-.23.39q0,5,0,10ZM28.66,16.08h0c0-.06,0-.12,0-.18q0-5,0-10.07a.32.32,0,0,0-.19-.32l-8.73-5L19.58.35ZM38.89.38l0,0,9,15.67a.23.23,0,0,0,.05-.15q0-5.07,0-10.14a.3.3,0,0,0-.19-.29L41.55,1.91ZM9.43,16.08h0c0-.06,0-.12,0-.18q0-5,0-10.07a.32.32,0,0,0-.19-.32L.57.46.35.35ZM95.82.36l-.14.06L86.83,5.53a.35.35,0,0,0-.14.26q0,5.07,0,10.14a1.41,1.41,0,0,0,0,.19ZM86.36,16.08h0c0-.08,0-.15,0-.23q0-5,0-10a.35.35,0,0,0-.2-.36l-8.69-5L77.34.39l0,0Zm-38.14,0,.06,0,9-15.67a.37.37,0,0,0-.2.06l-8.67,5a.41.41,0,0,0-.24.41q0,5,0,9.95Zm19.51,1,0,0,9.05,15.68a.24.24,0,0,0,0-.15q0-5.07,0-10.14a.3.3,0,0,0-.19-.29L71.18,19ZM76.58.37l-.11,0L67.6,5.54a.35.35,0,0,0-.14.26q0,5.06,0,10.11c0,.05,0,.11,0,.22ZM58.11.39l0,0,9,15.67a.4.4,0,0,0,.05-.22q0-5,0-10a.34.34,0,0,0-.2-.33l-8.69-5ZM95.78,33.73l0,0-.1,0-8.81,5.1a.35.35,0,0,0-.14.26q0,5.07,0,10.14a1.36,1.36,0,0,0,0,.18ZM9.43,49.39h0c0-.05,0-.11,0-.16q0-5,0-10.1a.3.3,0,0,0-.17-.3l-8.73-5-.23-.11Zm76.92,0,0,0s0-.08,0-.12q0-5.07,0-10.14a.32.32,0,0,0-.2-.31l-8.71-5-.22-.1Zm-67-16.66h.05l9-15.67a.42.42,0,0,0-.21.07l-8.67,5a.39.39,0,0,0-.23.39q0,5,0,10ZM38.09.42l0,0-.16.09-8.67,5a.39.39,0,0,0-.23.39q0,5,0,10c0,.08,0,.15,0,.23h0ZM9.76,16.07h.06l9-15.66a.42.42,0,0,0-.22.07L10,5.48a.37.37,0,0,0-.21.38q0,5,0,10Zm9.62,83.27h.05l9-15.67a.4.4,0,0,0-.21.06l-8.67,5a.39.39,0,0,0-.22.39q0,5,0,9.95Zm-9.62-50h.06L18.9,33.66l-.23.11-8.69,5a.37.37,0,0,0-.21.37q0,5,0,10Zm28.85,50,.05,0,9-15.67a.38.38,0,0,0-.21.06l-8.67,5a.39.39,0,0,0-.23.39q0,5,0,10Zm9.9-15.68,0,0,9,15.67.05,0v-.21q0-5,0-10a.35.35,0,0,0-.21-.35l-6-3.48Zm9.33,15.68.06,0,9-15.67a.36.36,0,0,0-.2.06l-8.67,5a.41.41,0,0,0-.24.41q0,5,0,9.95Zm18.9,0h0s0-.08,0-.11q0-5.08,0-10.16a.3.3,0,0,0-.19-.29l-8.73-5-.21-.1ZM18.9,67l-.15.07-8.84,5.1a.3.3,0,0,0-.15.31q0,5,0,10c0,.07,0,.13,0,.26ZM86.39,82.76c0-.1,0-.12,0-.15q0-5.11,0-10.22a.28.28,0,0,0-.18-.27L78.92,67.9,77.34,67l0,0ZM58.11,67l0,0,9.08,15.73c0-.11,0-.14,0-.17q0-5.1,0-10.19a.28.28,0,0,0-.18-.28l-6.18-3.56ZM48.22,82.69h.05L57.33,67a.7.7,0,0,0-.26.1l-8.61,5a.4.4,0,0,0-.24.41q0,5,0,10ZM38.88,67l0,0,9.09,15.74c0-.13,0-.18,0-.23q0-5.06,0-10.12a.3.3,0,0,0-.18-.3L39.93,67.6ZM29,82.68l.05,0L38.13,67l-.29.16-8.61,5a.41.41,0,0,0-.24.41q0,5,0,10ZM19,99.35h0c0-.05,0-.11,0-.16q0-5,0-10.09a.32.32,0,0,0-.19-.31l-8.71-5L10,83.63Zm10.23-15.7,0,0,9,15.67a.26.26,0,0,0,.05-.17q0-5.06,0-10.11a.3.3,0,0,0-.19-.29l-5.13-3ZM19.65,67l0,0L28.7,82.77c0-.12,0-.17,0-.21q0-5.07,0-10.14a.3.3,0,0,0-.19-.29L23.9,69.44ZM86.17,83.69l0,0-.18.09-8.67,5a.39.39,0,0,0-.22.39q0,5,0,9.95v.25h.05Zm-18.71-1,.05,0L76.59,67l-.29.16-8.57,4.94a.49.49,0,0,0-.29.5q0,4.93,0,9.86ZM28.72,50.54h-.05L19.61,66.21a.27.27,0,0,0,.16,0l8.76-5a.34.34,0,0,0,.19-.34q0-5,0-10Zm19.23,0H47.9l-9,15.67a.17.17,0,0,0,.13,0l8.8-5.07a.34.34,0,0,0,.18-.35q0-5,0-10Zm19.23,0h-.05L58.08,66.21a.19.19,0,0,0,.14,0L67,61.11a.32.32,0,0,0,.17-.33q0-5,0-10Zm9.34,15.7,0,0L67.5,50.52l0,0v.24q0,5,0,10a.39.39,0,0,0,.23.39l5.66,3.26ZM48.28,50.53h0s0,.09,0,.14q0,5.07,0,10.14a.32.32,0,0,0,.21.31l8.69,5,.17.09,0,0ZM29,50.53h0c0,.06,0,.12,0,.18q0,5,0,10.07a.35.35,0,0,0,.23.35l8.15,4.7.69.4,0,0ZM.42,67l0,0L9.44,82.71a.19.19,0,0,0,0-.13q0-5.08,0-10.17a.28.28,0,0,0-.17-.28L4,69.08Zm18.68.21-.05,0L10,82.85a.3.3,0,0,0,.18,0l8.75-5a.33.33,0,0,0,.17-.35q0-5,0-10Zm58,0h0c0,.05,0,.11,0,.16q0,5.06,0,10.12a.3.3,0,0,0,.18.3l8.71,5,.25.13ZM29.2,82.91l.14-.06,8.85-5.11a.35.35,0,0,0,.14-.26q0-5.07,0-10.14a1.51,1.51,0,0,0,0-.19Zm18.46,0,0,0-9-15.67a.35.35,0,0,0-.05.2q0,5,0,10.07a.33.33,0,0,0,.21.33l5.14,3ZM57.55,67.2h0l-9,15.67a.58.58,0,0,0,.25-.09l8.65-5a.35.35,0,0,0,.2-.36q0-5,0-10C57.57,67.35,57.56,67.27,57.55,67.2Zm.34,0h0s0,.09,0,.14q0,5.07,0,10.14a.3.3,0,0,0,.18.29l8.69,5,.26.13ZM9.49,50.54H9.44L.38,66.21a.26.26,0,0,0,.16,0l8.76-5a.34.34,0,0,0,.19-.34q0-5,0-10ZM48.43,16.3l.15-.07,8.84-5.1a.3.3,0,0,0,.15-.31q0-5,0-10c0-.07,0-.13,0-.26ZM95.75,99.55l0,0L86.73,83.83a.24.24,0,0,0,0,.15q0,5.07,0,10.14a.3.3,0,0,0,.19.29L92,97.36ZM67.66,16.3l.15-.07,8.84-5.1a.3.3,0,0,0,.15-.31q0-5,0-10c0-.07,0-.13,0-.26Zm8.86,83.25,0,0L67.5,83.83a.2.2,0,0,0,0,.14q0,5.08,0,10.17a.3.3,0,0,0,.19.29l5.87,3.38ZM29.2,16.29l.13,0,8.86-5.11a.28.28,0,0,0,.15-.29q0-5,0-10.09c0-.06,0-.11,0-.23ZM9.49,83.85H9.44L.38,99.52a.28.28,0,0,0,.16,0l8.77-5.06a.33.33,0,0,0,.17-.35q0-5,0-10ZM95.78,67l0,0-.1.05-8.82,5.09a.3.3,0,0,0-.15.31q0,5,0,10c0,.07,0,.13,0,.27ZM28.72,83.85h-.05L19.58,99.58l.25-.13,8.67-5a.39.39,0,0,0,.22-.39q0-5,0-10Zm19.56,0h0c0,.05,0,.11,0,.16q0,5,0,10.1a.32.32,0,0,0,.19.32l8.72,5,.23.12Zm-.33,0-.05,0L38.85,99.51a.34.34,0,0,0,.19-.05l8.71-5a.37.37,0,0,0,.21-.38q0-5,0-10ZM28.45,16.27l0,0L19.43.56l-.05,0V.73q0,5.06,0,10.12a.32.32,0,0,0,.2.31l7.55,4.35ZM77.28,99.56l.13-.05,8.86-5.11a.28.28,0,0,0,.15-.29q0-5,0-10.1c0-.06,0-.11,0-.23ZM19.43,67.19h0c0,.05,0,.11,0,.16q0,5.06,0,10.11a.3.3,0,0,0,.18.3l8.69,5,.27.14ZM67.18,83.85h-.05l-9,15.67a.34.34,0,0,0,.19-.05l8.72-5a.37.37,0,0,0,.21-.38q0-5,0-10ZM38.06,99.55l0,0L29,83.83A.24.24,0,0,0,29,84q0,5.07,0,10.14a.3.3,0,0,0,.19.29l5.1,2.94ZM9.82,83.84H9.76v.24q0,5,0,10a.41.41,0,0,0,.23.41l8.67,5,.23.12ZM77.31,66.2l0,0,8.92-5.15a.36.36,0,0,0,.14-.27q0-5.07,0-10.14a1.38,1.38,0,0,0,0-.18Zm18.44,0,0,0L86.7,50.46c0,.14,0,.2,0,.26q0,5,0,10.07a.34.34,0,0,0,.21.33l3.6,2.07Zm-28.84-50,0,0L57.89.56a.26.26,0,0,0,0,.16q0,5.06,0,10.12a.32.32,0,0,0,.19.31l6.3,3.63Zm-19.24,0,0,0L38.66.56a.35.35,0,0,0-.05.2q0,5,0,10.07a.32.32,0,0,0,.18.32l5,2.85ZM9.81,50.53l0,0s0,.06,0,.09q0,5.1,0,10.19a.3.3,0,0,0,.2.29l8.71,5,.22.11ZM67.66,82.91l.14-.06,8.85-5.11a.35.35,0,0,0,.14-.26q0-5.07,0-10.14a1.48,1.48,0,0,0,0-.19ZM77.12.57h-.05V.83q0,5,0,9.93a.44.44,0,0,0,.26.44l8,4.6.83.47,0,0ZM10,16.23l0,0,.16-.09,8.71-5a.33.33,0,0,0,.2-.34q0-5,0-10c0-.07,0-.15,0-.3Zm8.82,16.69,0,0L9.81,17.21l0,0v.14q0,5.06,0,10.12c0,.2.1.26.24.34l6.51,3.75Zm19.23,0,0,0L29,17.15c0,.14,0,.2,0,.26q0,5,0,10.07a.35.35,0,0,0,.23.35l4.12,2.37ZM48,17.23H47.9l-9,15.67a.34.34,0,0,0,.19-.06l8.72-5a.36.36,0,0,0,.2-.36q0-5,0-10Zm.32,0h0v.23q0,5,0,10a.37.37,0,0,0,.22.37l8.34,4.81.51.29,0,0Zm18.91,0-.05,0L58,33l.17-.08L67,27.8a.32.32,0,0,0,.17-.33q0-5,0-10Zm19.22,0h0L77.28,33l.16-.08,8.8-5.07a.32.32,0,0,0,.18-.32q0-5,0-10C86.41,17.36,86.41,17.3,86.4,17.23Zm-57.68,0h-.05L19.62,32.9a.21.21,0,0,0,.14,0l8.78-5.06a.34.34,0,0,0,.18-.35q0-5,0-10Zm38.79,0h0c0,.05,0,.11,0,.16q0,5,0,10.1a.34.34,0,0,0,.21.33l8.67,5,.25.13ZM19.43,33.88h0c0,.05,0,.11,0,.16q0,5,0,10.09a.32.32,0,0,0,.19.31l8.69,5,.18.09,0,0Zm18.9,0h-.06l-9,15.66a.44.44,0,0,0,.22-.07l8.67-5a.37.37,0,0,0,.21-.38q0-5,0-10Zm9.33,15.69,0,0-9-15.66a.2.2,0,0,0-.05.14q0,5.07,0,10.14a.3.3,0,0,0,.18.3l6.36,3.67Zm.81,0,0,0,.11-.05,8.8-5.07c.15-.09.16-.2.16-.33q0-5,0-10c0-.08,0-.15,0-.23h0Zm9.42-15.66,0,0s0,.06,0,.1q0,5.1,0,10.19c0,.16.09.22.2.28l8.71,5,.22.11ZM67.7,49.54l0,0,.11-.05,8.8-5.07c.15-.09.16-.2.16-.33q0-5,0-10c0-.08,0-.15,0-.23h0Zm18.43,0,0,0-9-15.66-.05,0v.26q0,5,0,9.93a.4.4,0,0,0,.23.41l8.63,5Zm9.62-16.64,0,0L86.73,17.21l0,0v.14q0,5.06,0,10.12c0,.2.1.26.24.34l6.53,3.77ZM10,49.6l.23-.11,8.74-5a.31.31,0,0,0,.17-.32q0-5,0-10c0-.07,0-.13,0-.26ZM.39,32.89l0,0,.18-.09,8.69-5a.36.36,0,0,0,.2-.36q0-5,0-10v-.23h0Zm28,17.22H10.15l.09.07,8.81,5.09a.34.34,0,0,0,.39,0L25,52.07Zm1,0,.12.09,8.81,5.09a.32.32,0,0,0,.37,0l8.73-5,.17-.12Zm19.23,0,.13.09,8.79,5.08a.35.35,0,0,0,.41,0l8.67-5,.22-.14Zm19.29,0,0,0,.13.08,8.73,5a.35.35,0,0,0,.41,0l8.71-5,.18-.13ZM10.15,83.41l.1.08,8.81,5.09a.34.34,0,0,0,.39,0l8.61-5,.29-.18Zm19.21,0,.14.1,8.77,5.07a.32.32,0,0,0,.37,0l8.77-5.07.13-.11Zm19.3,0v0l.14.09,8.69,5a.39.39,0,0,0,.46,0l8.69-5,.18-.13Zm19.23,0v0l.12.07,8.73,5a.36.36,0,0,0,.41,0l8.71-5L86,83.4Z"/></g></g></svg>