<?xml version="1.0" encoding="utf-8"?>
<!-- Generator: Adobe Illustrator 20.1.0, SVG Export Plug-In . SVG Version: 6.00 Build 0)  -->
<svg version="1.1" id="Layer_1" xmlns="http://www.w3.org/2000/svg" xmlns:xlink="http://www.w3.org/1999/xlink" x="0px" y="0px"
	 viewBox="0 0 143.2 109.6" style="enable-background:new 0 0 143.2 109.6;" xml:space="preserve">
<style type="text/css">
	.st0{fill:#F2EFE2;}
	.st1{fill:#FF7C00;}
	.st2{fill:#FDD000;}
</style>
<title>login</title>
<g id="Layer_2">
	<g id="Layer_1-2">
		<path class="st0" d="M35.2,54.4c0-7.2,3.9-13.9,10.2-17.4c0.9-1.6,1.8-3.1,2.5-4.8c2.8-6.7,4.3-13.6,3.3-20.9
			c-0.8-6-4.3-9.7-10.1-10.9c-2.7-0.5-5.5-0.5-8.2-0.1c-5.8,0.8-9.5,4.4-10.6,10.3c-0.6,3.4-0.6,6.9,0,10.3c0.8,6.2,3,12.1,6.5,17.3
			c0.1,0.2,0.3,0.4,0.3,0.6c0.1,1.9-0.9,3.7-2.5,4.6c-1.7,0.8-3.4,1.4-5.1,2c-4.6,1.4-9.1,3.3-13.3,5.5c-2.7,1.5-4.8,3.9-6,6.8
			c-1.2,2.9-1.9,5.9-2.1,9C0,67.8,0,69,0,70.1h42.7C38,66.3,35.2,60.5,35.2,54.4z"/>
		<path class="st1" d="M55,38.9c-8.9-0.2-16.3,6.9-16.4,15.8c-0.2,8.9,6.9,16.3,15.8,16.4s16.3-6.9,16.4-15.8c0-0.1,0-0.2,0-0.3
			C70.9,46.2,63.8,39,55,38.9z M61.3,54.9c-1.2,0-2.4,0-4,0c0,2.4,0.1,4.5,0.1,6.7c0,1.8-0.9,2.8-2.4,2.7c-1.3,0.1-2.3-0.9-2.4-2.1
			c0-0.2,0-0.3,0-0.5c0-2.2,0-4.3,0-6.7c-1.3,0-2.5,0.1-3.7,0c-1.7,0-2.2-0.6-1.2-1.7c2-2.4,4.1-4.8,6.2-7.1
			c0.4-0.6,1.1-0.7,1.7-0.4c0.1,0.1,0.3,0.2,0.4,0.4c2.2,2.4,4.4,4.8,6.5,7.2C63.3,54.4,62.6,54.9,61.3,54.9L61.3,54.9z"/>
		<path class="st0" d="M2.3,79.8h1.9v22.8H2.3V79.8z"/>
		<path class="st0" d="M15.9,103.2c-1.1,0-2.2-0.2-3.2-0.6c-0.9-0.4-1.7-1-2.4-1.7c-0.7-0.8-1.2-1.7-1.5-2.7
			c-0.4-1.2-0.5-2.4-0.5-3.6s0.2-2.5,0.6-3.7c0.3-1,0.9-2,1.6-2.8c0.7-0.8,1.5-1.4,2.4-1.8c1-0.4,2.1-0.6,3.2-0.6s2.2,0.2,3.2,0.6
			c0.9,0.4,1.8,1,2.4,1.7c0.7,0.8,1.2,1.7,1.5,2.7c0.4,1.1,0.5,2.3,0.5,3.6c0,1.2-0.2,2.5-0.5,3.7c-0.3,1-0.9,2-1.5,2.8
			c-0.7,0.8-1.5,1.4-2.5,1.8S17.1,103.2,15.9,103.2z M16,101.6c0.9,0,1.8-0.2,2.7-0.6c0.7-0.4,1.3-0.9,1.8-1.5
			c0.5-0.7,0.8-1.5,1-2.3c0.2-0.9,0.3-1.9,0.3-2.8s-0.1-1.9-0.3-2.8c-0.2-0.8-0.5-1.6-1-2.3c-0.5-0.6-1.1-1.2-1.8-1.5
			c-0.8-0.4-1.7-0.6-2.7-0.6c-0.9,0-1.8,0.2-2.6,0.6c-0.7,0.4-1.3,0.9-1.8,1.5c-0.5,0.7-0.8,1.4-1,2.3s-0.3,1.9-0.3,2.8
			s0.1,1.9,0.3,2.8c0.2,0.8,0.5,1.6,1,2.3c0.5,0.6,1.1,1.2,1.8,1.5C14.2,101.4,15.1,101.6,16,101.6z"/>
		<path class="st0" d="M29.5,104.4c0.2,1,0.7,1.9,1.5,2.4c1.1,0.6,2.4,0.9,3.6,0.8c1.5,0.1,2.9-0.4,4-1.3c0.9-0.9,1.3-2.4,1.3-4.5
			v-2.5c-0.6,0.9-1.5,1.7-2.4,2.2c-1,0.5-2.2,0.8-3.3,0.8s-2.2-0.2-3.2-0.7c-0.9-0.4-1.6-1.1-2.2-1.8c-0.6-0.8-1-1.7-1.3-2.6
			c-0.3-1-0.4-2-0.4-3.1c0-1.2,0.2-2.4,0.5-3.5c0.3-1,0.8-1.9,1.5-2.6c0.6-0.7,1.4-1.3,2.3-1.7c1-0.4,2-0.6,3.1-0.6
			c1,0,1.9,0.2,2.8,0.6c1.1,0.5,2,1.2,2.6,2.1v-2.2h1.9V102c0.1,1.9-0.5,3.8-1.7,5.2c-1.1,1.3-2.9,1.9-5.4,1.9
			c-0.9,0-1.8-0.1-2.6-0.3c-0.7-0.2-1.5-0.4-2.1-0.8s-1.1-0.9-1.5-1.5c-0.4-0.7-0.7-1.4-0.7-2.2L29.5,104.4z M40,93.8
			c0-0.6,0-1.3-0.1-1.9c-0.1-0.5-0.2-1-0.4-1.4s-0.4-0.8-0.7-1.1c-0.3-0.3-0.6-0.7-1-0.9c-0.5-0.3-1-0.6-1.5-0.8
			c-0.5-0.2-1.1-0.3-1.7-0.3c-0.7,0-1.5,0.1-2.2,0.4s-1.3,0.7-1.7,1.2c-0.5,0.6-0.9,1.4-1.1,2.1c-0.3,1-0.4,2.1-0.4,3.1
			c0,1.1,0.1,2.1,0.5,3.1c0.3,0.7,0.7,1.4,1.2,2c0.5,0.5,1,0.9,1.7,1.1c0.6,0.2,1.2,0.4,1.9,0.3c0.6,0,1.2-0.1,1.8-0.2
			c0.6-0.2,1.1-0.5,1.6-0.8c0.7-0.6,1.3-1.3,1.7-2.1c0.4-1,0.6-2.1,0.6-3.2v-0.6H40z"/>
		<path class="st0" d="M46.3,79.8h2.1v2.8h-2.1V79.8z M46.4,86.2h1.9v16.5h-1.9V86.2z"/>
		<path class="st0" d="M52.8,86.2h1.9v2.7c0.8-1,1.7-1.9,2.9-2.4c1-0.5,2.1-0.8,3.2-0.8c1.6-0.1,3.1,0.4,4.2,1.6
			c1,1.3,1.4,2.9,1.3,4.4v11h-1.9V92.2c0.1-1.3-0.2-2.6-0.9-3.7c-0.8-0.8-1.8-1.2-2.9-1.1c-0.7,0-1.4,0.1-2,0.4
			c-0.7,0.2-1.4,0.6-1.9,1.2c-0.6,0.5-1.1,1.1-1.4,1.7c-0.4,0.8-0.5,1.6-0.5,2.4v9.7h-1.9L52.8,86.2L52.8,86.2z"/>
	</g>
</g>
<g id="Layer_2_1_">
	<g id="Layer_1-2_1_">
		<path class="st2" d="M107.6,54.9c0-7.2,3.9-13.9,10.2-17.4c0.9-1.6,1.8-3.1,2.5-4.8c2.8-6.7,4.3-13.6,3.3-20.9
			c-0.8-6-4.3-9.7-10.1-10.9c-2.7-0.5-5.5-0.5-8.2-0.1C99.5,1.5,95.8,5.1,94.7,11c-0.6,3.4-0.6,6.9,0,10.3c0.8,6.2,3,12.1,6.5,17.3
			c0.1,0.2,0.3,0.4,0.3,0.6c0.1,1.9-0.9,3.7-2.5,4.6c-1.7,0.8-3.4,1.4-5.1,2c-4.6,1.4-9.1,3.3-13.3,5.5c-2.7,1.5-4.8,3.9-6,6.8
			c-1.2,2.9-1.9,5.9-2.1,9c-0.1,1-0.1,2.2-0.1,3.3h42.7C110.4,66.7,107.7,61,107.6,54.9z"/>
		<path class="st1" d="M127.4,39.3c-8.9-0.2-16.3,6.9-16.4,15.8s6.9,16.3,15.8,16.4s16.3-6.9,16.4-15.8c0-0.1,0-0.2,0-0.3
			C143.3,46.6,136.2,39.4,127.4,39.3z M133.8,55.3c-1.2,0-2.4,0-4,0c0,2.4,0.1,4.5,0.1,6.7c0,1.8-0.9,2.8-2.4,2.7
			c-1.3,0.1-2.3-0.9-2.4-2.1c0-0.2,0-0.3,0-0.5c0-2.2,0-4.3-0.1-6.7c-1.3,0-2.5,0.1-3.7,0c-1.7,0-2.2-0.6-1.2-1.7
			c2-2.4,4.1-4.8,6.2-7.1c0.4-0.6,1.1-0.7,1.7-0.4c0.1,0.1,0.3,0.2,0.4,0.4c2.2,2.4,4.4,4.8,6.5,7.2C135.7,54.8,135,55.3,133.8,55.3
			L133.8,55.3z"/>
		<path class="st2" d="M74.8,80.2h1.8V103h-1.8V80.2z"/>
		<path class="st2" d="M88.4,103.6c-1.1,0-2.2-0.2-3.2-0.6c-0.9-0.4-1.7-1-2.4-1.7c-0.7-0.8-1.2-1.7-1.5-2.7
			c-0.4-1.2-0.5-2.4-0.5-3.6s0.2-2.5,0.6-3.7c0.3-1,0.9-2,1.6-2.8s1.5-1.4,2.5-1.8s2.1-0.6,3.2-0.6s2.2,0.2,3.2,0.6
			c0.9,0.4,1.8,1,2.4,1.7c0.7,0.8,1.2,1.7,1.5,2.7c0.4,1.1,0.5,2.3,0.5,3.6c0,1.2-0.2,2.5-0.5,3.7c-0.3,1-0.9,2-1.6,2.8
			s-1.5,1.4-2.5,1.8C90.6,103.4,89.5,103.6,88.4,103.6z M88.4,102c0.9,0,1.8-0.2,2.7-0.6c0.7-0.4,1.3-0.9,1.8-1.5
			c0.5-0.7,0.8-1.5,1-2.3c0.2-0.9,0.3-1.9,0.3-2.8s-0.1-1.9-0.3-2.8c-0.2-0.8-0.5-1.6-1-2.3c-0.5-0.6-1.1-1.2-1.8-1.5
			c-0.8-0.4-1.7-0.6-2.7-0.6c-0.9,0-1.8,0.2-2.6,0.6c-0.7,0.4-1.3,0.9-1.8,1.5c-0.5,0.7-0.8,1.4-1,2.3s-0.3,1.9-0.3,2.8
			s0.1,1.9,0.3,2.8c0.2,0.8,0.5,1.6,1,2.3c0.5,0.6,1.1,1.2,1.8,1.5C86.6,101.8,87.5,102,88.4,102z"/>
		<path class="st2" d="M102,104.9c0.2,1,0.7,1.9,1.5,2.4c1.1,0.6,2.4,0.9,3.6,0.8c1.5,0.1,2.9-0.4,4-1.3c0.9-0.9,1.3-2.4,1.3-4.5
			v-2.5c-0.6,0.9-1.5,1.7-2.4,2.2c-1,0.5-2.2,0.8-3.3,0.8c-1.1,0-2.2-0.2-3.2-0.7c-0.9-0.4-1.6-1.1-2.2-1.8c-0.6-0.8-1-1.7-1.3-2.6
			c-0.3-1-0.4-2-0.4-3.1c0-1.2,0.2-2.4,0.5-3.5c0.3-1,0.8-1.9,1.4-2.6s1.4-1.3,2.3-1.7c1-0.4,2-0.6,3.1-0.6c1,0,1.9,0.2,2.8,0.6
			c1.1,0.5,2,1.2,2.6,2.1v-2.2h1.9v15.8c0.1,1.9-0.5,3.8-1.7,5.2c-1.1,1.3-2.9,1.9-5.4,1.9c-0.9,0-1.8-0.1-2.6-0.3
			c-0.7-0.2-1.5-0.4-2.1-0.8s-1.1-0.9-1.5-1.5c-0.4-0.7-0.7-1.4-0.7-2.2L102,104.9z M112.4,94.2c0-0.6,0-1.3-0.1-1.9
			c-0.1-0.5-0.2-1-0.4-1.4c-0.2-0.4-0.4-0.8-0.7-1.1c-0.3-0.3-0.6-0.7-1-0.9c-0.5-0.3-1-0.6-1.5-0.8c-0.5-0.2-1.1-0.3-1.7-0.3
			c-0.7,0-1.5,0.1-2.2,0.4s-1.3,0.7-1.7,1.2c-0.5,0.6-0.9,1.4-1.1,2.1c-0.3,1-0.4,2.1-0.4,3.1c0,1.1,0.1,2.1,0.5,3.1
			c0.3,0.7,0.7,1.4,1.2,2c0.5,0.5,1,0.9,1.7,1.1c0.6,0.2,1.2,0.4,1.9,0.3c0.6,0,1.2-0.1,1.8-0.2c0.6-0.2,1.1-0.5,1.6-0.8
			c0.7-0.6,1.3-1.3,1.7-2.1c0.4-1,0.6-2.1,0.6-3.2v-0.6H112.4z"/>
		<path class="st2" d="M118.7,80.2h2.1V83h-2.1V80.2z M118.8,86.6h1.9v16.5h-1.9V86.6z"/>
		<path class="st2" d="M125.3,86.6h1.9v2.7c0.8-1,1.7-1.9,2.9-2.4c1-0.5,2.1-0.8,3.2-0.8c1.6-0.1,3.1,0.4,4.2,1.6
			c1,1.3,1.4,2.9,1.3,4.4v11h-1.9V92.6c0.1-1.3-0.2-2.6-0.9-3.7c-0.8-0.8-1.8-1.2-2.9-1.1c-0.7,0-1.4,0.1-2,0.4
			c-0.7,0.2-1.4,0.6-1.9,1.2c-0.6,0.5-1.1,1.1-1.4,1.7c-0.4,0.8-0.5,1.6-0.5,2.4v9.7h-1.9V86.6H125.3z"/>
	</g>
</g>
</svg>
