<?xml version="1.0" encoding="utf-8"?>
<!-- Generator: Adobe Illustrator 20.1.0, SVG Export Plug-In . SVG Version: 6.00 Build 0)  -->
<svg version="1.1" id="Layer_1" xmlns="http://www.w3.org/2000/svg" xmlns:xlink="http://www.w3.org/1999/xlink" x="0px" y="0px"
	 viewBox="0 0 118.8 54.8" style="enable-background:new 0 0 118.8 54.8;" xml:space="preserve">
<style type="text/css">
	.st0{fill:none;stroke:#FFFFFF;stroke-miterlimit:10;}
	.st1{enable-background:new    ;}
	.st2{fill:#1E1B1C;}
	.st3{fill:#FFFFFF;}
	.st4{fill:#DF861D;}
</style>
<title>Asset 1</title>
<path class="st0" d="M118.8,49.1"/>
<g class="st1">
	<path class="st2" d="M27.3,37l2.4-11.7c0.9-4.4,1.4-8.3,1.4-11.7c0-0.2,0-0.4,0-0.6c0-0.2,0-0.3,0-0.5V12l2.2-1v0.3
		c0,0.9,0,1.9-0.1,3c-0.1,1.8-0.3,3.8-0.5,5.8l-0.2,0.6c0.6-1.7,1.5-3.4,2.8-5.3c0.8-1.1,1.6-2.2,2.5-3.1s1.8-1.5,2.6-2
		c0.9-0.3,1.7-0.6,2.4-0.6c1.1,0,1.9,0.4,2.5,1.2c0.7,0.8,1,1.8,1,3.1c0,1.8-0.5,3.7-1.6,5.6s-2.5,3.7-4.3,5.1s-3.7,2.5-5.7,3.1
		c0.6,1.1,1.3,2.2,2.1,3.1c0.8,1,1.6,1.9,2.4,2.8c0.9,0.9,1.7,1.7,2.6,2.4l-1.5,1.4c-1.1-0.8-2.2-1.9-3.3-3.1
		c-1.1-1.2-2.1-2.5-2.9-3.7c-0.8-1.3-1.4-2.4-1.8-3.4c0.1,0,0.2,0,0.4,0c1.3,0,2.6-0.4,4-1.1s2.7-1.7,3.8-3c1.1-1.2,2-2.7,2.6-4.4
		c0.7-1.7,1-3.2,1-4.7c0-1-0.2-1.8-0.6-2.4c-0.4-0.6-1-0.9-1.7-0.9s-1.5,0.2-2.2,0.7s-1.6,1.2-2.4,2c-0.8,0.8-1.6,2-2.3,3.3
		c-0.9,1.5-1.6,3-2.1,4.5c-0.6,1.5-1.1,3.4-1.5,5.5l-2.1,9.9h-1.9C27.3,36.7,27.3,37,27.3,37z"/>
	<path class="st2" d="M68.8,28l-1.9,9h-1.3c-0.5-1.6-1.3-3.1-2.4-4.6s-2.4-2.7-3.7-3.7c-0.9,1.4-1.9,2.7-3.1,3.9
		c-1.1,1.1-2.3,2.1-3.6,2.9s-2.6,1.4-4,1.9s-2.7,0.7-4.1,0.7c-0.4,0-0.8,0-1.2-0.1l0.6-1.5c0.7,0.1,1.3,0.1,1.6,0.1
		c3.7,0,7-1.4,9.9-4.3c0.6-0.6,1.2-1.3,1.8-2.1c0.6-0.8,1.3-1.7,1.9-2.7c1.5-2.3,2.7-4.5,3.8-6.5l1.9-3.7c1.5-2.9,2.7-4.8,3.5-5.9
		c0.8-1,1.6-1.5,2.4-1.5c0.3,0,0.5,0.1,0.7,0.2c0.2,0.1,0.3,0.3,0.5,0.5c0.1,0.2,0.2,0.4,0.2,0.7c0,0.2,0,0.5-0.1,0.8
		s-0.1,0.6-0.1,0.6L69,27.3h1.4L70.3,28H68.8z M66.9,28h-7.1l0.1,0.1c1.2,0.9,2.2,1.9,3.1,2.8c0.9,1,1.7,2.1,2.5,3.5L66.9,28z
		 M60.4,27.3h6.7L70,13.5c0.1-0.4,0.1-0.7,0.1-0.7c0.1-0.3,0.1-0.5,0.1-0.7c0-0.3-0.1-0.5-0.4-0.5c-0.4,0-0.8,0.4-1.3,1.2
		s-1.4,2.4-2.7,4.7c-0.2,0.4-0.6,1.1-1.2,2.2c-0.5,0.9-0.8,1.4-0.8,1.5l-1.9,3.5C61.1,26.2,60.6,27.1,60.4,27.3z"/>
	<path class="st2" d="M73.7,37l2.5-11.7c0.4-2,0.8-4.1,1-6.2c0.3-2.2,0.4-4.1,0.4-6c0-0.4,0-0.8,0-1.1l2.2-1v0.6
		c0,0.9-0.1,2.3-0.2,4.3c-0.2,2-0.3,3.5-0.5,4.6c0.8-1.9,1.9-3.7,3.1-5.4s2.5-3,3.8-3.9c1.3-1,2.5-1.5,3.5-1.5
		c1.1,0,1.9,0.4,2.5,1.3c0.6,0.8,1,2,1,3.4c0,1.8-0.4,3.6-1.2,5.4c-0.8,1.8-1.8,3.5-3.2,5c-1.3,1.5-2.8,2.7-4.4,3.6
		s-3.2,1.3-4.7,1.3c-0.4,0-0.8,0-1.2-0.1l1.1-1.4c0.7,0.2,1.3,0.3,2,0.3c1.1,0,2.2-0.4,3.4-1.1c1.1-0.8,2.1-1.8,3-3.2
		c0.8-1.3,1.5-2.8,2.1-4.7s0.9-3.5,0.9-4.9c0-1.1-0.2-2-0.6-2.7c-0.4-0.6-0.9-1-1.6-1c-1,0-2.1,0.6-3.4,1.7s-2.5,2.6-3.7,4.5
		c-0.9,1.4-1.6,2.8-2.2,4.4s-1.1,3.4-1.6,5.5l-2.2,10.1L73.7,37L73.7,37L73.7,37z"/>
	<path class="st2" d="M93.5,37L96,25.3c0.4-2,0.8-4.1,1-6.2c0.3-2.2,0.4-4.1,0.4-6c0-0.4,0-0.8,0-1.1l2.2-1v0.6
		c0,0.9-0.1,2.3-0.2,4.3c-0.2,2-0.3,3.5-0.5,4.6c0.8-1.9,1.9-3.7,3.1-5.4s2.5-3,3.8-3.9c1.3-1,2.5-1.4,3.5-1.4
		c1.1,0,1.9,0.4,2.5,1.3c0.6,0.8,1,2,1,3.4c0,1.8-0.4,3.6-1.2,5.4c-0.8,1.8-1.8,3.5-3.2,5c-1.3,1.5-2.8,2.7-4.4,3.6
		s-3.2,1.3-4.7,1.3c-0.4,0-0.8,0-1.2-0.1l1.1-1.4c0.7,0.2,1.3,0.3,2,0.3c1.1,0,2.2-0.4,3.4-1.1c1.1-0.8,2.1-1.8,3-3.2
		c0.8-1.3,1.5-2.8,2.1-4.7s0.9-3.5,0.9-4.9c0-1.1-0.2-2-0.6-2.7c-0.4-0.6-0.9-1-1.6-1c-1,0-2.1,0.6-3.4,1.7s-2.5,2.6-3.7,4.5
		c-0.9,1.4-1.6,2.8-2.2,4.4S98,25,97.5,27.1l-2.2,10.1h-1.8L93.5,37L93.5,37z"/>
</g>
<g class="st1">
	<path class="st3" d="M28.6,37L31,25.3c0.9-4.4,1.4-8.3,1.4-11.7c0-0.2,0-0.4,0-0.6c0-0.2,0-0.3,0-0.5V12l2.2-1v0.3
		c0,0.9,0,1.9-0.1,3c-0.1,1.8-0.3,3.8-0.5,5.8l-0.2,0.6c0.6-1.7,1.5-3.4,2.8-5.3c0.8-1.1,1.6-2.2,2.5-3.1s1.8-1.5,2.6-2
		c0.9-0.3,1.7-0.6,2.5-0.6c1.1,0,1.9,0.4,2.5,1.2s0.9,1.8,0.9,3.1c0,1.8-0.5,3.7-1.6,5.6s-2.5,3.7-4.3,5.1S38,27.2,36,27.8
		c0.6,1.1,1.3,2.2,2.1,3.1c0.8,1,1.6,1.9,2.4,2.8c0.9,0.9,1.7,1.7,2.6,2.4l-1.5,1.4c-1.1-0.8-2.2-1.9-3.3-3.1
		c-1.1-1.2-2.1-2.5-2.9-3.7c-0.8-1.3-1.4-2.4-1.8-3.4c0.1,0,0.2,0,0.4,0c1.3,0,2.6-0.4,4-1.1s2.7-1.7,3.8-3c1.1-1.2,2-2.7,2.6-4.4
		c0.7-1.7,1-3.2,1-4.7c0-1-0.2-1.8-0.6-2.4c-0.4-0.6-1-0.9-1.7-0.9s-1.5,0.2-2.2,0.7s-1.6,1.2-2.4,2s-1.6,2-2.3,3.3
		c-0.9,1.5-1.6,3-2.1,4.5c-0.6,1.5-1.1,3.4-1.5,5.5L30.5,37H28.6z"/>
	<path class="st3" d="M70.2,28l-1.9,9H67c-0.5-1.6-1.3-3.1-2.4-4.6s-2.4-2.7-3.7-3.7c-0.9,1.4-1.9,2.7-3.1,3.9
		c-1.1,1.1-2.3,2.1-3.6,2.9s-2.6,1.4-4,1.9s-2.7,0.7-4.1,0.7c-0.4,0-0.8,0-1.2-0.1l0.6-1.5c0.7,0.1,1.3,0.1,1.6,0.1
		c3.7,0,7-1.4,9.9-4.3c0.6-0.6,1.2-1.3,1.8-2.1c0.6-0.8,1.3-1.7,1.9-2.7c1.5-2.3,2.7-4.5,3.8-6.5l1.9-3.7c1.5-2.9,2.7-4.8,3.5-5.9
		c0.8-1,1.6-1.5,2.4-1.5c0.3,0,0.5,0.1,0.7,0.2c0.2,0.1,0.3,0.3,0.5,0.5s0.2,0.4,0.2,0.7c0,0.2,0,0.5-0.1,0.8s-0.2,0.6-0.2,0.6
		l-3.1,14.6h1.4L71.6,28H70.2z M68.2,28h-7.1l0.1,0.1c1.2,0.9,2.2,1.9,3.1,2.8c0.9,1,1.7,2.1,2.5,3.5L68.2,28z M61.7,27.3h6.7
		l2.9-13.8c0.1-0.4,0.1-0.7,0.1-0.7c0.1-0.2,0.1-0.5,0.1-0.7c0-0.3-0.1-0.5-0.4-0.5c-0.4,0-0.8,0.4-1.3,1.2s-1.4,2.4-2.7,4.7
		c-0.2,0.4-0.6,1.1-1.2,2.2c-0.5,0.9-0.8,1.4-0.8,1.5l-1.9,3.5C62.4,26.2,61.9,27.1,61.7,27.3z"/>
	<path class="st3" d="M75,37l2.5-11.7c0.4-2,0.8-4.1,1-6.2c0.3-2.2,0.4-4.1,0.4-6c0-0.4,0-0.8,0-1.1l2.2-1v0.6
		c0,0.9-0.1,2.3-0.2,4.3c-0.2,2-0.3,3.5-0.5,4.6c0.9-2,1.9-3.8,3.1-5.4c1.2-1.7,2.5-3,3.8-3.9c1.3-1,2.5-1.4,3.5-1.4
		c1.1,0,1.9,0.4,2.5,1.3c0.6,0.8,1,2,1,3.4c0,1.8-0.4,3.6-1.2,5.4c-0.8,1.8-1.8,3.5-3.2,5c-1.3,1.5-2.8,2.7-4.4,3.6
		s-3.2,1.3-4.7,1.3c-0.4,0-0.8,0-1.2-0.1l1.1-1.4c0.7,0.2,1.3,0.3,2,0.3c1.1,0,2.2-0.4,3.4-1.1c1.1-0.8,2.1-1.8,3-3.2
		c0.8-1.3,1.5-2.8,2.1-4.7s0.9-3.5,0.9-4.9c0-1.1-0.2-2-0.6-2.7c-0.4-0.6-0.9-1-1.6-1c-1,0-2.1,0.6-3.4,1.7s-2.5,2.6-3.7,4.5
		c-0.9,1.4-1.6,2.8-2.2,4.4S79.5,25,79,27.1l-2.2,10.1H75V37L75,37z"/>
	<path class="st3" d="M94.8,37l2.5-11.7c0.4-2,0.8-4.1,1-6.2c0.3-2.2,0.4-4.1,0.4-6c0-0.4,0-0.8,0-1.1l2.2-1v0.6
		c0,0.9-0.1,2.3-0.2,4.3c-0.2,2-0.3,3.5-0.5,4.6c0.8-1.9,1.9-3.7,3.1-5.4s2.5-3,3.8-3.9c1.3-1,2.5-1.4,3.5-1.4
		c1.1,0,1.9,0.4,2.5,1.3c0.6,0.8,1,2,1,3.4c0,1.8-0.4,3.6-1.2,5.4c-0.8,1.8-1.8,3.5-3.2,5c-1.3,1.5-2.8,2.7-4.4,3.6
		s-3.2,1.3-4.7,1.3c-0.4,0-0.8,0-1.2-0.1l1.1-1.4c0.7,0.2,1.3,0.3,2,0.3c1.1,0,2.2-0.4,3.4-1.1c1.1-0.8,2.1-1.8,3-3.2
		c0.8-1.3,1.5-2.8,2.1-4.7s0.9-3.5,0.9-4.9c0-1.1-0.2-2-0.6-2.7c-0.4-0.6-0.9-1-1.6-1c-1,0-2.1,0.6-3.4,1.7s-2.5,2.6-3.7,4.5
		c-0.9,1.4-1.6,2.8-2.2,4.4s-1.1,3.4-1.6,5.5l-2.2,10.1h-1.8L94.8,37L94.8,37z"/>
</g>
<g>
	<g>
		<path class="st4" d="M51.3,47.1c0,0-0.7,0.1-2,0.1c-1.3,0.1-3.3,0.2-5.8,0.3s-5.5,0.2-9,0.2s-7.4-0.1-11.7-0.4
			c-4.3-0.4-9-1-13.8-2.7c-2.4-0.9-4.9-2.1-6.9-4.3c-0.3-0.3-0.4-0.6-0.7-0.9c-0.2-0.3-0.4-0.6-0.6-1l-0.5-1.1
			c-0.1-0.4-0.2-0.8-0.3-1.1c0-0.2-0.1-0.4-0.1-0.6V35c0-0.4,0-0.8,0-1.1c0.1-0.7,0.2-1.5,0.4-2.2c0.8-2.8,2.3-5.3,4-7.5
			c0.4-0.6,0.9-1.1,1.3-1.6L6.5,22l0.2-0.2l0.2-0.2l0.4-0.4c0.9-1,2-2,3-3c4.2-3.9,9-7.1,14.2-9.6c5-2.5,10.5-4.4,15.9-5.7
			c5.5-1.3,10.9-2.1,16.3-2.5c10.6-0.8,20.6-0.2,29,1.1s15.3,3.2,19.9,5.2c2.3,1,4,2,5,2.9c0.5,0.4,0.8,0.8,1,1.1s0.2,0.5,0.2,0.5
			s-0.1-0.2-0.3-0.5c-0.2-0.3-0.5-0.7-1-1.1c-1-0.9-2.7-1.8-5-2.8C100.9,4.9,94,3.1,85.6,2S67.3,0.5,56.7,1.5
			C51.4,2,46,2.9,40.7,4.3s-10.6,3.3-15.6,5.9s-9.6,5.8-13.5,9.6c-1,1-1.9,1.9-2.8,3l-0.3,0.4l-0.2,0.2l-0.2,0.2l-0.6,0.8
			c-0.4,0.5-0.9,1-1.2,1.6c-1.6,2.1-2.9,4.4-3.5,6.7c-0.7,2.3-0.2,4.5,1.3,6.1s3.6,2.6,5.8,3.4c4.4,1.5,8.9,1.9,13.1,2.2
			s8,0.3,11.4,0.2c3.4-0.1,6.4-0.2,8.9-0.4s4.4-0.3,5.7-0.4c1.3-0.1,2-0.2,2-0.2L51.3,47.1z"/>
		<g>
			<polygon class="st4" points="66.6,43.5 43.9,37 50,45.3 45.8,54.8 			"/>
		</g>
	</g>
</g>
<g>
	<g>
		<path class="st4" d="M114.1,14.5c0,0,0.3,0.5,0.6,1.5c0.2,0.5,0.4,1.1,0.6,1.8c0.1,0.4,0.2,0.7,0.3,1.2c0.1,0.4,0.2,0.8,0.2,1.3
			c0.1,0.9,0.1,1.9,0,3s-0.4,2.2-0.8,3.3c-0.4,1.1-1,2.2-1.7,3.3c-0.7,1.1-1.5,2-2.4,2.9c-1.8,1.8-3.9,3.3-5.9,4.5s-4,2.1-5.7,2.9
			c-1.7,0.7-3.2,1.3-4.2,1.6s-1.6,0.5-1.6,0.5l-1.2-4.7c0,0,0.6-0.1,1.6-0.3s2.4-0.5,4.1-1c3.3-1,7.8-2.5,11.4-5.3
			c0.9-0.7,1.8-1.4,2.5-2.3c0.7-0.8,1.4-1.7,1.9-2.7c0.5-0.9,0.8-1.9,1.1-2.9c0.2-1,0.3-1.9,0.3-2.8c0-0.4,0-0.9,0-1.3
			s-0.1-0.8-0.1-1.1c-0.1-0.7-0.3-1.3-0.4-1.8C114.3,15.1,114.1,14.5,114.1,14.5z"/>
		<g>
			<polygon class="st4" points="75.8,42.8 98.1,28.8 94.1,39.6 101.5,48.4 			"/>
		</g>
	</g>
</g>
<path class="st2" d="M7.5,37L10,25.3c0.4-2,0.8-4.1,1-6.2c0.3-2.2,0.5-4.2,0.5-6c0-0.4,0-0.8,0-1.1l2.2-1v0.6c0,0.9-0.1,2.3-0.2,4.3
	c-0.2,2-0.3,3.5-0.5,4.6c0.8-2,1.8-3.8,3-5.4c1.2-1.7,2.5-3,3.8-3.9c1.3-1,2.5-1.4,3.5-1.4c1.1,0,1.9,0.4,2.5,1.3c0.6,0.8,1,2,1,3.4
	c0,1.8-0.4,3.6-1.2,5.4c-0.8,1.8-1.8,3.5-3.2,5c-1.4,1.5-2.8,2.7-4.4,3.6s-3.2,1.3-4.7,1.3c-0.4,0-0.8,0-1.2-0.1l1.1-1.4
	c0.7,0.2,1.3,0.3,2,0.3c1.1,0,2.2-0.4,3.4-1.1c1.1-0.8,2.1-1.8,3-3.2c0.8-1.3,1.5-2.8,2.1-4.7s0.9-3.5,0.9-4.9c0-1.1-0.2-2-0.6-2.7
	c-0.4-0.6-0.9-1-1.6-1c-1,0-2.1,0.6-3.4,1.7c-1.1,1-2.4,2.5-3.6,4.4c-0.9,1.3-1.6,2.8-2.2,4.4s-1.1,3.4-1.6,5.5L9.4,37H7.5z"/>
<path class="st3" d="M8.8,37l2.5-11.7c0.4-2,0.8-4.1,1-6.2c0.3-2.2,0.4-4.1,0.4-6c0-0.4,0-0.8,0-1.1l2.2-1v0.6
	c0,0.9-0.1,2.3-0.2,4.3c-0.2,2-0.3,3.5-0.5,4.6c0.9-2,1.9-3.8,3.1-5.4c1.2-1.7,2.5-3,3.8-3.9c1.3-1,2.5-1.4,3.5-1.4
	c1.1,0,1.9,0.4,2.5,1.3c0.6,0.8,1,2,1,3.4c0,1.8-0.4,3.6-1.2,5.4c-0.8,1.8-1.8,3.5-3.2,5s-2.8,2.7-4.4,3.6s-3.2,1.3-4.7,1.3
	c-0.4,0-0.8,0-1.2-0.1l1.1-1.4c0.7,0.2,1.3,0.3,2,0.3c1.1,0,2.2-0.4,3.4-1.1c1.1-0.8,2.1-1.8,3-3.2c0.8-1.3,1.5-2.8,2.1-4.7
	s0.9-3.5,0.9-4.9c0-1.1-0.2-2-0.6-2.7c-0.4-0.6-0.9-1-1.6-1c-1,0-2.1,0.6-3.4,1.7c-1.1,1-2.4,2.5-3.6,4.4c-0.9,1.3-1.6,2.8-2.2,4.4
	c-0.6,1.6-1.1,3.4-1.6,5.5l-2.2,10H8.8z"/>
</svg>
