<?xml version="1.0" encoding="utf-8"?>
<!-- Generator: Adobe Illustrator 20.1.0, SVG Export Plug-In . SVG Version: 6.00 Build 0)  -->
<svg version="1.1" id="Layer_1" xmlns="http://www.w3.org/2000/svg" xmlns:xlink="http://www.w3.org/1999/xlink" x="0px" y="0px"
	 viewBox="0 0 96.1 48" style="enable-background:new 0 0 96.1 48;" xml:space="preserve">
<style type="text/css">
	.st0{fill:url(#SVGID_1_);}
	.st1{fill:url(#SVGID_2_);}
</style>
<title>submit</title>
<g id="Layer_2">
	<g id="Layer_1-2">
		
			<linearGradient id="SVGID_1_" gradientUnits="userSpaceOnUse" x1="0" y1="766" x2="48.06" y2="766" gradientTransform="matrix(1 0 0 1 0 -742)">
			<stop  offset="0" style="stop-color:#F7931E"/>
			<stop  offset="1" style="stop-color:#FBAE17"/>
		</linearGradient>
		<path class="st0" d="M24,0C10.7,0,0,10.7,0,24s10.7,24,24,24s24-10.7,24-24S37.3,0,24,0z M36.4,27l-0.2,0.3l0,0l-10.5,12L20.8,35
			l6.8-7.8H10.1v-6.4h17.5L20.8,13l4.8-4.2l10.5,12l0,0l0.2,0.3C37.9,22.7,37.9,25.3,36.4,27z"/>
	</g>
</g>
<g id="Layer_2_1_">
	<g id="Layer_1-2_1_">
		
			<linearGradient id="SVGID_2_" gradientUnits="userSpaceOnUse" x1="48.1" y1="766" x2="96.16" y2="766" gradientTransform="matrix(1 0 0 1 0 -742)">
			<stop  offset="0" style="stop-color:#00B2BA"/>
			<stop  offset="1" style="stop-color:#005C6A"/>
		</linearGradient>
		<path class="st1" d="M72.1,0c-13.3,0-24,10.7-24,24s10.7,24,24,24s24-10.7,24-24S85.3,0,72.1,0z M84.5,27l-0.2,0.3l0,0l-10.5,12
			L68.9,35l6.8-7.8H58.2v-6.4h17.5L68.9,13l4.8-4.2l10.5,12l0,0l0.2,0.3C86,22.8,86,25.3,84.5,27z"/>
	</g>
</g>
</svg>
