<svg xmlns="http://www.w3.org/2000/svg" viewBox="0 0 100 100"><defs><style>.cls-1{fill:#257678;}.cls-2{fill:none;stroke:#fff;stroke-miterlimit:10;}.cls-3{isolation:isolate;}.cls-4{fill:#1e1b1c;}.cls-5,.cls-7{fill:#fff;}.cls-6{fill:#dd8626;}.cls-7{font-size:12px;font-family:MavenProLight300-Regular, Maven Pro Light;}.cls-8{letter-spacing:0em;}.cls-9{letter-spacing:-0.01em;}.cls-10{letter-spacing:-0.01em;}.cls-11{letter-spacing:0em;}.cls-12{letter-spacing:-0.01em;}.cls-13{letter-spacing:-0.01em;}.cls-14{letter-spacing:0em;}.cls-15{letter-spacing:0em;}</style></defs><title>upload</title><g id="Layer_2" data-name="Layer 2"><g id="Layer_1-2" data-name="Layer 1"><rect class="cls-1" width="100" height="100"/><path class="cls-2" d="M84.33,51.29"/><g class="cls-3"><path class="cls-4" d="M28.24,48.28l1.54-7.53a38.36,38.36,0,0,0,.9-7.53v-1l1.42-.64v.19c0,.58,0,1.22-.06,1.93-.06,1.16-.19,2.45-.32,3.73l-.13.39a14.68,14.68,0,0,1,1.8-3.41,16.75,16.75,0,0,1,1.61-2,9,9,0,0,1,1.67-1.29,5.41,5.41,0,0,1,1.54-.39,1.87,1.87,0,0,1,1.61.77,2.87,2.87,0,0,1,.64,2,7.17,7.17,0,0,1-1,3.6,11.24,11.24,0,0,1-2.77,3.28,11.41,11.41,0,0,1-3.67,2,10.86,10.86,0,0,0,1.35,2c.51.64,1,1.22,1.54,1.8a18.28,18.28,0,0,0,1.67,1.54l-1,.9a15.09,15.09,0,0,1-2.12-2,20.09,20.09,0,0,1-1.87-2.38A14.81,14.81,0,0,1,31.46,42h.26a5.76,5.76,0,0,0,2.57-.71,7.73,7.73,0,0,0,2.45-1.93,8.26,8.26,0,0,0,1.67-2.83,7.76,7.76,0,0,0,.64-3A2.75,2.75,0,0,0,38.67,32a1.26,1.26,0,0,0-1.09-.58,2.45,2.45,0,0,0-1.42.45,12.55,12.55,0,0,0-1.54,1.29,9.44,9.44,0,0,0-1.48,2.12,14.63,14.63,0,0,0-1.35,2.9,19.83,19.83,0,0,0-1,3.54l-1.35,6.37H28.24Z"/><path class="cls-4" d="M55,42.49l-1.22,5.79H52.9a10.05,10.05,0,0,0-1.54-3A11.92,11.92,0,0,0,49,42.94a14.87,14.87,0,0,1-2,2.51,12.81,12.81,0,0,1-2.32,1.87,13.44,13.44,0,0,1-2.57,1.22,7.59,7.59,0,0,1-2.64.45,3.13,3.13,0,0,1-.77-.06l.39-1a7.11,7.11,0,0,0,1,.06,8.75,8.75,0,0,0,6.37-2.77,12.61,12.61,0,0,0,1.16-1.35,20.31,20.31,0,0,0,1.22-1.74c1-1.48,1.74-2.9,2.45-4.18l1.22-2.38a30.58,30.58,0,0,1,2.25-3.8,2.09,2.09,0,0,1,1.54-1,.93.93,0,0,1,.45.13c.13.06.19.19.32.32a.93.93,0,0,1,.13.45,1.6,1.6,0,0,1-.06.51,1.38,1.38,0,0,0-.06.39l-2,9.4H56l-.06.45Zm-1.22,0H49.16l.06.06a18.61,18.61,0,0,1,2,1.8,12.66,12.66,0,0,1,1.61,2.25ZM49.55,42h4.31l1.87-8.88a2.06,2.06,0,0,0,.06-.45,1.26,1.26,0,0,0,.06-.45c0-.19-.06-.32-.26-.32s-.51.26-.84.77-.9,1.54-1.74,3c-.13.26-.39.71-.77,1.42a7.94,7.94,0,0,0-.51,1l-1.22,2.25A13,13,0,0,1,49.55,42Z"/><path class="cls-4" d="M58.11,48.28l1.61-7.53a39.68,39.68,0,0,0,.64-4,27.76,27.76,0,0,0,.26-3.86v-.71L62,31.55v.39c0,.58-.06,1.48-.13,2.77s-.19,2.25-.32,3a18.69,18.69,0,0,1,2-3.48A10.13,10.13,0,0,1,66,31.68a3.92,3.92,0,0,1,2.25-1,1.78,1.78,0,0,1,1.61.84,3.68,3.68,0,0,1,.64,2.19,8.5,8.5,0,0,1-.77,3.48,11.42,11.42,0,0,1-2.06,3.22,10.67,10.67,0,0,1-2.83,2.32,6.15,6.15,0,0,1-3,.84,3.13,3.13,0,0,1-.77-.06l.71-.9a4.46,4.46,0,0,0,1.29.19,4.37,4.37,0,0,0,2.19-.71A7.47,7.47,0,0,0,67.19,40a13.3,13.3,0,0,0,1.35-3,10.63,10.63,0,0,0,.58-3.15,3.47,3.47,0,0,0-.39-1.74,1.22,1.22,0,0,0-1-.64,3.67,3.67,0,0,0-2.19,1.09,12.45,12.45,0,0,0-2.38,2.9,14.56,14.56,0,0,0-1.42,2.83,29.8,29.8,0,0,0-1,3.54l-1.42,6.5-1.16-.06Z"/><path class="cls-4" d="M70.86,48.28l1.61-7.53a39.68,39.68,0,0,0,.64-4,27.76,27.76,0,0,0,.26-3.86v-.71l1.42-.64v.39c0,.58-.06,1.48-.13,2.77s-.19,2.25-.32,3a18.69,18.69,0,0,1,2-3.48,10.13,10.13,0,0,1,2.45-2.51,3.77,3.77,0,0,1,2.25-.9,1.78,1.78,0,0,1,1.61.84,3.68,3.68,0,0,1,.64,2.19,8.5,8.5,0,0,1-.77,3.48,11.42,11.42,0,0,1-2.06,3.22,10.67,10.67,0,0,1-2.83,2.32,6.15,6.15,0,0,1-3,.84,3.13,3.13,0,0,1-.77-.06l.71-.9a4.46,4.46,0,0,0,1.29.19A4.37,4.37,0,0,0,78,42.17a7.47,7.47,0,0,0,1.93-2.06,13.3,13.3,0,0,0,1.35-3,10.63,10.63,0,0,0,.58-3.15,3.47,3.47,0,0,0-.39-1.74,1.22,1.22,0,0,0-1-.64,3.67,3.67,0,0,0-2.19,1.09,12.45,12.45,0,0,0-2.38,2.9,14.56,14.56,0,0,0-1.42,2.83,29.8,29.8,0,0,0-1,3.54L72,48.41H70.86v-.13Z"/></g><g class="cls-3"><path class="cls-5" d="M29.08,48.28l1.54-7.53a38.36,38.36,0,0,0,.9-7.53v-1l1.42-.64v.19c0,.58,0,1.22-.06,1.93-.06,1.16-.19,2.45-.32,3.73l-.13.39a14.68,14.68,0,0,1,1.8-3.41,16.75,16.75,0,0,1,1.61-2,9,9,0,0,1,1.67-1.29,5.3,5.3,0,0,1,1.61-.39,1.87,1.87,0,0,1,1.61.77,3.2,3.2,0,0,1,.58,2,7.17,7.17,0,0,1-1,3.6,11.24,11.24,0,0,1-2.77,3.28,11.41,11.41,0,0,1-3.67,2,10.86,10.86,0,0,0,1.35,2c.51.64,1,1.22,1.54,1.8a18.28,18.28,0,0,0,1.67,1.54l-1,.9a15.09,15.09,0,0,1-2.12-2,20.09,20.09,0,0,1-1.87-2.38A14.81,14.81,0,0,1,32.3,42h.26a5.76,5.76,0,0,0,2.57-.71,7.73,7.73,0,0,0,2.45-1.93,8.26,8.26,0,0,0,1.67-2.83,7.76,7.76,0,0,0,.64-3A2.75,2.75,0,0,0,39.51,32a1.26,1.26,0,0,0-1.09-.58,2.45,2.45,0,0,0-1.42.45,12.55,12.55,0,0,0-1.54,1.29A9.44,9.44,0,0,0,34,35.28a14.63,14.63,0,0,0-1.35,2.9,19.83,19.83,0,0,0-1,3.54L30.3,48.28Z"/><path class="cls-5" d="M55.86,42.49l-1.22,5.79H53.8a10.05,10.05,0,0,0-1.54-3,11.92,11.92,0,0,0-2.38-2.38,14.87,14.87,0,0,1-2,2.51,12.81,12.81,0,0,1-2.32,1.87A13.44,13.44,0,0,1,43,48.54a7.59,7.59,0,0,1-2.64.45,3.13,3.13,0,0,1-.77-.06L40,48A7.11,7.11,0,0,0,41,48a8.75,8.75,0,0,0,6.37-2.77,12.61,12.61,0,0,0,1.16-1.35,20.31,20.31,0,0,0,1.22-1.74c1-1.48,1.74-2.9,2.45-4.18l1.22-2.38a30.58,30.58,0,0,1,2.25-3.8,2.09,2.09,0,0,1,1.54-1,.93.93,0,0,1,.45.13c.13.06.19.19.32.32a.54.54,0,0,1,.13.45,1.6,1.6,0,0,1-.06.51l-.13.39-2,9.4h.9l-.06.45Zm-1.29,0H50l.06.06a18.61,18.61,0,0,1,2,1.8,12.66,12.66,0,0,1,1.61,2.25ZM50.39,42H54.7l1.87-8.88a2.06,2.06,0,0,0,.06-.45,1.1,1.1,0,0,0,.06-.45c0-.19-.06-.32-.26-.32s-.51.26-.84.77-.9,1.54-1.74,3c-.13.26-.39.71-.77,1.42a7.94,7.94,0,0,0-.51,1l-1.22,2.25A13,13,0,0,1,50.39,42Z"/><path class="cls-5" d="M58.95,48.28l1.61-7.53a39.68,39.68,0,0,0,.64-4,27.76,27.76,0,0,0,.26-3.86v-.71l1.42-.64v.39c0,.58-.06,1.48-.13,2.77s-.19,2.25-.32,3a18.16,18.16,0,0,1,2-3.48,10.13,10.13,0,0,1,2.45-2.51,3.77,3.77,0,0,1,2.25-.9,1.78,1.78,0,0,1,1.61.84,3.68,3.68,0,0,1,.64,2.19,8.5,8.5,0,0,1-.77,3.48,11.42,11.42,0,0,1-2.06,3.22,10.67,10.67,0,0,1-2.83,2.32,6.15,6.15,0,0,1-3,.84,3.13,3.13,0,0,1-.77-.06l.71-.9a4.46,4.46,0,0,0,1.29.19,4.37,4.37,0,0,0,2.19-.71A7.47,7.47,0,0,0,68,40.11a13.3,13.3,0,0,0,1.35-3A10.63,10.63,0,0,0,70,33.93a3.47,3.47,0,0,0-.39-1.74,1.22,1.22,0,0,0-1-.64,3.67,3.67,0,0,0-2.19,1.09A12.45,12.45,0,0,0,64,35.54a14.56,14.56,0,0,0-1.42,2.83,29.8,29.8,0,0,0-1,3.54l-1.42,6.5H58.95v-.13Z"/><path class="cls-5" d="M71.69,48.28l1.61-7.53a39.68,39.68,0,0,0,.64-4,27.76,27.76,0,0,0,.26-3.86v-.71l1.42-.64v.39c0,.58-.06,1.48-.13,2.77s-.19,2.25-.32,3a18.69,18.69,0,0,1,2-3.48,10.13,10.13,0,0,1,2.45-2.51,3.77,3.77,0,0,1,2.25-.9,1.78,1.78,0,0,1,1.61.84,3.68,3.68,0,0,1,.64,2.19,8.5,8.5,0,0,1-.77,3.48,11.42,11.42,0,0,1-2.06,3.22,10.67,10.67,0,0,1-2.83,2.32,6.15,6.15,0,0,1-3,.84,3.13,3.13,0,0,1-.77-.06l.71-.9a4.46,4.46,0,0,0,1.29.19,4.37,4.37,0,0,0,2.19-.71,7.47,7.47,0,0,0,1.93-2.06,13.3,13.3,0,0,0,1.35-3,10.63,10.63,0,0,0,.58-3.15,3.47,3.47,0,0,0-.39-1.74,1.22,1.22,0,0,0-1-.64,3.67,3.67,0,0,0-2.19,1.09,12.45,12.45,0,0,0-2.38,2.9,14.56,14.56,0,0,0-1.42,2.83,29.8,29.8,0,0,0-1,3.54l-1.42,6.5H71.69v-.13Z"/></g><path class="cls-6" d="M43.69,54.79a10.13,10.13,0,0,1-1.29.06c-.84.06-2.12.13-3.73.19s-3.54.13-5.79.13-4.76-.06-7.53-.26a36,36,0,0,1-8.88-1.74A10.93,10.93,0,0,1,12,50.41c-.19-.19-.26-.39-.45-.58a5.66,5.66,0,0,1-.39-.64l-.32-.71c-.06-.26-.13-.51-.19-.71s-.06-.26-.06-.39V46.29a10.92,10.92,0,0,1,.26-1.42A14.53,14.53,0,0,1,13.44,40c.26-.39.58-.71.84-1l.58-.39L15,38.5l.13-.13.26-.26c.58-.64,1.29-1.29,1.93-1.93A36.86,36.86,0,0,1,26.44,30a48.56,48.56,0,0,1,10.24-3.67,66.83,66.83,0,0,1,10.49-1.61,82.84,82.84,0,0,1,18.67.71,54.72,54.72,0,0,1,12.81,3.35,12.45,12.45,0,0,1,3.22,1.87,3,3,0,0,1,.64.71.65.65,0,0,1,.13.32,3.34,3.34,0,0,0-.19-.32,3,3,0,0,0-.64-.71,12.62,12.62,0,0,0-3.22-1.8,53.2,53.2,0,0,0-12.81-3.09,83.85,83.85,0,0,0-18.6-.32,64,64,0,0,0-10.3,1.8,48.73,48.73,0,0,0-10,3.8,36.64,36.64,0,0,0-8.69,6.18,25.58,25.58,0,0,0-1.8,1.93l-.19.26-.13.13-.13.13-.39.51a6.15,6.15,0,0,0-.77,1,12.63,12.63,0,0,0-2.25,4.31,3.91,3.91,0,0,0,.84,3.93A9.41,9.41,0,0,0,17,51.63,33,33,0,0,0,25.47,53a72.13,72.13,0,0,0,7.34.13c2.19-.06,4.12-.13,5.73-.26s2.83-.19,3.67-.26,1.29-.13,1.29-.13Z"/><polygon class="cls-6" points="53.54 52.47 38.93 48.28 42.85 53.63 40.15 59.74 53.54 52.47"/><path class="cls-6" d="M84.12,33.8a4.64,4.64,0,0,1,.39,1,12.15,12.15,0,0,1,.39,1.16c.06.26.13.45.19.77a3.26,3.26,0,0,1,.13.84,9.66,9.66,0,0,1,0,1.93,8.52,8.52,0,0,1-.51,2.12,11.11,11.11,0,0,1-1.09,2.12,10.83,10.83,0,0,1-1.54,1.87,19.81,19.81,0,0,1-3.8,2.9,39.72,39.72,0,0,1-3.67,1.87c-1.09.45-2.06.84-2.7,1l-1,.32-.77-3,1-.19c.64-.13,1.54-.32,2.64-.64a22.62,22.62,0,0,0,7.34-3.41,8.8,8.8,0,0,0,1.61-1.48,8.43,8.43,0,0,0,1.22-1.74,9.31,9.31,0,0,0,.71-1.87,9.05,9.05,0,0,0,.19-1.8V36.7c0-.26-.06-.51-.06-.71-.06-.45-.19-.84-.26-1.16C84.25,34.19,84.12,33.8,84.12,33.8Z"/><polygon class="cls-6" points="59.46 52.02 73.82 43.01 71.24 49.96 76.01 55.62 59.46 52.02"/><path class="cls-4" d="M15.5,48.28l1.61-7.53a39.69,39.69,0,0,0,.64-4,29.22,29.22,0,0,0,.32-3.86v-.71l1.42-.64v.39c0,.58-.06,1.48-.13,2.77s-.19,2.25-.32,3A15.11,15.11,0,0,1,21,34.19a10.13,10.13,0,0,1,2.45-2.51,3.77,3.77,0,0,1,2.25-.9,1.78,1.78,0,0,1,1.61.84,3.68,3.68,0,0,1,.64,2.19,8.5,8.5,0,0,1-.77,3.48,11.41,11.41,0,0,1-2.06,3.22,11.8,11.8,0,0,1-2.83,2.32,6.15,6.15,0,0,1-3,.84,3.13,3.13,0,0,1-.77-.06l.71-.9a4.46,4.46,0,0,0,1.29.19,4.37,4.37,0,0,0,2.19-.71,7.47,7.47,0,0,0,1.93-2.06,13.3,13.3,0,0,0,1.35-3,10.63,10.63,0,0,0,.58-3.15,3.47,3.47,0,0,0-.39-1.74,1.22,1.22,0,0,0-1-.64,3.67,3.67,0,0,0-2.19,1.09,14,14,0,0,0-2.32,2.83,12.94,12.94,0,0,0-1.42,2.83,29.8,29.8,0,0,0-1,3.54l-1.42,6.44Z"/><path class="cls-5" d="M16.33,48.28l1.61-7.53a39.69,39.69,0,0,0,.64-4,27.76,27.76,0,0,0,.26-3.86v-.71l1.42-.64v.39c0,.58-.06,1.48-.13,2.77s-.19,2.25-.32,3a18.16,18.16,0,0,1,2-3.48,10.13,10.13,0,0,1,2.45-2.51,3.77,3.77,0,0,1,2.25-.9,1.78,1.78,0,0,1,1.61.84,3.68,3.68,0,0,1,.64,2.19A8.5,8.5,0,0,1,28,37.28a11.41,11.41,0,0,1-2.06,3.22,11.8,11.8,0,0,1-2.83,2.32,6.15,6.15,0,0,1-3,.84,3.13,3.13,0,0,1-.77-.06l.71-.9a4.46,4.46,0,0,0,1.29.19,4.37,4.37,0,0,0,2.19-.71,7.47,7.47,0,0,0,1.93-2.06,13.3,13.3,0,0,0,1.35-3,10.63,10.63,0,0,0,.58-3.15A3.47,3.47,0,0,0,27,32.19a1.22,1.22,0,0,0-1-.64,3.67,3.67,0,0,0-2.19,1.09,14,14,0,0,0-2.32,2.83A12.94,12.94,0,0,0,20,38.31a29.8,29.8,0,0,0-1,3.54l-1.42,6.44Z"/><text class="cls-7" transform="translate(18.38 82.36)"><tspan class="cls-8">U</tspan><tspan class="cls-9" x="7.9" y="0">p</tspan><tspan class="cls-10" x="14.29" y="0">l</tspan><tspan class="cls-11" x="16.94" y="0">o</tspan><tspan class="cls-12" x="23.6" y="0">a</tspan><tspan x="29.78" y="0">d </tspan><tspan class="cls-13" x="40.07" y="0">L</tspan><tspan class="cls-14" x="45.82" y="0">o</tspan><tspan class="cls-15" x="52.5" y="0">g</tspan><tspan x="58.79" y="0">o</tspan></text></g></g></svg>